:SAMPLES-PER-SECOND 30
:FULLY-SPECIFIED
:DEGREES
240
root  56.2105 38.8127 20.9539 -169.275 14.1931 -179.962
RightUpLeg  -32.9055 -31.0144 4.39003
RightLeg  18.6354 -4.55472 3.6498
RightFoot  3.11196 0.316947 -2.33635
RightToes  0.000482159 0.542163 -0.142577
Spine  57.9025 -4.46154 9.48222
Spine1  9.0851 0.715163 -2.8342
HEad  -26.9746 20.7104 -27.4005
LeftShoulder1  10.2125 -21.6389 -34.4753
LeftArm  -15.5106 -28.3633 -27.6643
LeftForeArm  22.7944 -6.57236 -5.6047
LeftHand  -0.25398 0.0180481 5.50724
RightShoulder  4.51218 11.321 24.2688
RightArm  -6.57805 44.9875 36.4265
RightForeArm  -4.12229 8.59854 8.94603
RightHand  -2.11512 4.98752 -23.692
LeftUpLeg  -42.4843 5.71245 0.480562
LeftLeg  38.6141 0.609215 0.915545
LeftFoot  8.9149 0.866627 -5.16618
LeftToes  1.06248e-005 4.65855e-005 -8.18498e-006
241
root  55.4702 38.8906 20.7067 -171.224 15.379 -179.928
RightUpLeg  -28.7856 -28.064 0.0587963
RightLeg  16.8928 -6.91924 4.35497
RightFoot  4.37218 0.13298 -0.748404
RightToes  0.000482159 0.542163 -0.142577
Spine  56.6961 -4.79705 9.50578
Spine1  9.10417 0.729197 -3.92938
HEad  -26.0944 22.8586 -28.2902
LeftShoulder1  10.1187 -20.4375 -36.1112
LeftArm  -14.4577 -22.9631 -26.8977
LeftForeArm  23.5927 -7.83002 -5.78379
LeftHand  -0.25398 0.0180481 5.50724
RightShoulder  5.00036 11.8605 26.4844
RightArm  -3.51865 39.5101 35.1936
RightForeArm  -6.73311 9.24518 9.56044
RightHand  -2.33443 5.48649 -24.9203
LeftUpLeg  -40.8413 4.78852 3.47997
LeftLeg  41.2004 1.58626 1.87828
LeftFoot  5.76095 0.786102 -5.42506
LeftToes  1.06248e-005 4.65855e-005 -8.18498e-006
242
root  54.6828 38.9351 20.4452 -173.034 16.4204 179.995
RightUpLeg  -25.6034 -25.1169 -3.51018
RightLeg  15.5484 -8.85044 4.49119
RightFoot  5.47784 -0.0991324 0.926162
RightToes  0.000482159 0.542163 -0.142577
Spine  55.2417 -4.61464 9.3704
Spine1  9.24765 0.831525 -3.88848
HEad  -24.8114 25.0915 -29.0061
LeftShoulder1  10.2263 -19.4515 -38.3331
LeftArm  -13.8824 -18.4146 -26.1234
LeftForeArm  24.9803 -8.68907 -5.71141
LeftHand  -0.25398 0.0180481 5.50724
RightShoulder  5.21148 11.9525 27.6933
RightArm  -0.793056 33.7262 34.2649
RightForeArm  -7.34085 10.0648 9.77806
RightHand  -2.41445 5.90962 -24.8188
LeftUpLeg  -38.5088 4.00527 6.34537
LeftLeg  41.7853 3.55282 3.77107
LeftFoot  2.84019 0.450704 -3.75028
LeftToes  1.06248e-005 4.65855e-005 -8.18498e-006
243
root  53.8527 38.9195 20.1719 -174.985 17.2971 179.888
RightUpLeg  -23.1372 -23.269 -6.1419
RightLeg  14.903 -9.58109 4.03852
RightFoot  6.45117 -0.311536 2.27272
RightToes  0.000482159 0.542163 -0.142577
Spine  53.8918 -4.35968 9.16706
Spine1  9.37181 0.880136 -3.51344
HEad  -22.5806 26.9336 -29.2468
LeftShoulder1  10.3497 -18.7337 -40.2432
LeftArm  -13.4903 -14.3885 -25.1175
LeftForeArm  26.0151 -9.2697 -5.57928
LeftHand  -0.25398 0.0180481 5.50724
RightShoulder  5.25614 11.8368 28.2531
RightArm  0.287408 27.7926 33.8987
RightForeArm  -5.84999 10.4937 9.60939
RightHand  -2.36015 6.08017 -23.9411
LeftUpLeg  -35.1089 2.9079 9.08382
LeftLeg  40.0412 5.11088 4.96311
LeftFoot  0.150231 0.211076 -2.11802
LeftToes  1.06248e-005 4.65855e-005 -8.18498e-006
244
root  52.9615 38.8197 19.87 -177.058 18.0333 179.782
RightUpLeg  -21.2636 -23.6526 -7.83455
RightLeg  14.9986 -7.99735 3.29758
RightFoot  7.194 -0.528198 3.5405
RightToes  0.000482159 0.542163 -0.142577
Spine  52.7513 -4.4391 8.92615
Spine1  9.3556 0.722059 -3.58431
HEad  -20.5565 29.064 -29.1835
LeftShoulder1  10.3087 -18.0639 -41.4331
LeftArm  -13.2279 -10.6369 -23.9149
LeftForeArm  26.4098 -9.90836 -5.42368
LeftHand  -0.25398 0.0180481 5.50724
RightShoulder  5.33684 11.8087 28.8587
RightArm  0.565371 21.9285 33.5441
RightForeArm  -5.56641 10.6548 9.46895
RightHand  -2.33725 5.90148 -24.0774
LeftUpLeg  -31.0326 1.24422 11.5097
LeftLeg  36.7947 5.67246 4.90916
LeftFoot  -2.56644 0.145957 -1.72913
LeftToes  1.06248e-005 4.65855e-005 -8.18498e-006
245
root  51.9748 38.6121 19.5235 -178.848 18.5959 179.637
RightUpLeg  -20.2687 -25.2343 -9.25319
RightLeg  15.9447 -5.12868 2.45593
RightFoot  7.41723 -0.785931 5.06828
RightToes  0.000482159 0.542163 -0.142577
Spine  51.2896 -4.64678 8.77637
Spine1  9.29497 0.365447 -3.62046
HEad  -18.7812 30.8323 -29.0411
LeftShoulder1  10.2197 -17.5185 -42.201
LeftArm  -13.255 -7.32006 -22.8804
LeftForeArm  26.6684 -10.59 -5.18047
LeftHand  -0.25398 0.0180481 5.50724
RightShoulder  5.45111 11.7319 29.8048
RightArm  1.61192 16.0518 32.6071
RightForeArm  -8.4296 11.3428 9.43875
RightHand  -2.42907 5.67084 -25.4648
LeftUpLeg  -27.4594 -0.632987 13.1888
LeftLeg  33.9144 5.24409 4.1392
LeftFoot  -4.24456 0.177449 -2.44157
LeftToes  1.06248e-005 4.65855e-005 -8.18498e-006
246
root  50.8691 38.3332 19.1324 179.757 19.0354 179.556
RightUpLeg  -19.5511 -25.5258 -11.2606
RightLeg  16.859 -3.66292 1.72597
RightFoot  7.60796 -1.12627 7.04783
RightToes  0.000482159 0.542163 -0.142577
Spine  49.3585 -4.92303 8.87648
Spine1  9.32987 -0.0638478 -3.59442
HEad  -16.981 32.1519 -28.6914
LeftShoulder1  10.1158 -17.1441 -42.5564
LeftArm  -13.4262 -4.56303 -22.2534
LeftForeArm  26.754 -11.2679 -4.91113
LeftHand  -0.25398 0.0180481 5.50724
RightShoulder  5.60182 11.5698 31.2096
RightArm  3.43004 10.0023 31.0734
RightForeArm  -12.2544 12.7973 9.23731
RightHand  -2.54385 5.78966 -26.3557
LeftUpLeg  -24.7613 -1.56951 13.7053
LeftLeg  32.8645 4.2054 3.2682
LeftFoot  -4.58813 0.262259 -3.95817
LeftToes  1.06248e-005 4.65855e-005 -8.18498e-006
247
root  49.6484 38.0713 18.6971 178.397 19.6369 179.798
RightUpLeg  -17.6802 -23.747 -13.943
RightLeg  16.1331 -4.35487 1.40224
RightFoot  8.4541 -1.66295 9.82474
RightToes  0.000482159 0.542163 -0.142577
Spine  47.5317 -5.22561 9.07513
Spine1  9.61728 -0.342591 -3.82566
HEad  -15.1153 33.3777 -28.0418
LeftShoulder1  10.0033 -16.8648 -42.6696
LeftArm  -13.4463 -2.39951 -21.916
LeftForeArm  26.0852 -12.0656 -4.71413
LeftHand  -0.25398 0.0180481 5.50724
RightShoulder  5.70892 11.3491 32.4902
RightArm  4.95034 3.99077 29.5018
RightForeArm  -14.2812 14.3653 8.76069
RightHand  -2.46046 5.82096 -25.4487
LeftUpLeg  -22.0551 -0.591418 13.1141
LeftLeg  33.3897 3.3053 2.69579
LeftFoot  -5.46465 0.345357 -6.17827
LeftToes  1.06248e-005 4.65855e-005 -8.18498e-006
248
root  48.3293 37.9103 18.2105 177.117 20.7009 -179.812
RightUpLeg  -14.6303 -20.9115 -16.7545
RightLeg  13.1994 -5.97257 1.59752
RightFoot  9.04015 -2.28304 13.022
RightToes  0.000482159 0.542163 -0.142577
Spine  46.091 -5.29675 8.78216
Spine1  9.93542 -0.486468 -4.22535
HEad  -13.3974 34.5843 -27.1453
LeftShoulder1  9.84164 -16.5373 -42.6685
LeftArm  -13.2171 -0.580857 -21.9181
LeftForeArm  24.7359 -13.2479 -4.5481
LeftHand  -0.25398 0.0180481 5.50724
RightShoulder  5.71724 11.0864 33.2388
RightArm  6.02918 -1.46311 28.1108
RightForeArm  -14.5323 15.4962 8.2883
RightHand  -2.08586 5.04347 -23.2463
LeftUpLeg  -19.2443 2.12876 11.656
LeftLeg  34.2076 2.9834 2.53864
LeftFoot  -8.19911 0.270397 -8.00032
LeftToes  1.06248e-005 4.65855e-005 -8.18498e-006
249
root  46.9257 37.8716 17.6883 176.694 22.2153 179.98
RightUpLeg  -12.3759 -18.3181 -19.3982
RightLeg  9.19123 -7.82672 1.84171
RightFoot  7.43094 -2.42421 14.9012
RightToes  0.000482159 0.542163 -0.142577
Spine  44.2045 -4.66704 7.34642
Spine1  10.1097 -0.70952 -3.84986
HEad  -12.0419 35.7631 -26.9999
LeftShoulder1  9.66876 -16.1261 -42.8087
LeftArm  -12.5585 0.927941 -22.1313
LeftForeArm  23.4488 -14.8817 -4.37457
LeftHand  -0.25398 0.0180481 5.50724
RightShoulder  5.63706 10.78 33.5175
RightArm  6.95816 -6.11376 26.8358
RightForeArm  -14.2896 16.3835 7.86698
RightHand  -1.61312 3.55581 -21.0311
LeftUpLeg  -18.0226 5.61646 9.07796
LeftLeg  34.7317 2.92862 2.54401
LeftFoot  -11.1257 0.0849578 -7.44989
LeftToes  1.06248e-005 4.65855e-005 -8.18498e-006
